<?xml version="1.0" standalone="no"?>
<!DOCTYPE svg PUBLIC "-//W3C//DTD SVG 20010904//EN"
 "http://www.w3.org/TR/2001/REC-SVG-20010904/DTD/svg10.dtd">
<svg version="1.0" xmlns="http://www.w3.org/2000/svg"
 width="912.000000pt" height="912.000000pt" viewBox="0 0 912.000000 912.000000"
 preserveAspectRatio="xMidYMid meet">
<metadata>
Created by potrace 1.14, written by Peter Selinger 2001-2017
</metadata>
<g transform="translate(0.000000,912.000000) scale(0.100000,-0.100000)"
fill="#000000" stroke="none">
<path d="M5907 8774 c-1 -2 -24 -4 -50 -5 -27 -2 -50 -7 -53 -11 -3 -5 -9 -6
-14 -3 -4 3 -27 -2 -51 -11 -24 -9 -48 -17 -54 -18 -24 -5 -156 -74 -189 -99
-6 -4 -33 -24 -61 -44 -43 -32 -175 -160 -241 -234 -77 -87 -225 -342 -284
-489 -12 -30 -29 -71 -37 -90 -8 -20 -15 -42 -17 -50 -2 -8 -5 -22 -8 -30 -14
-38 -44 -150 -53 -196 -2 -10 -4 -19 -5 -19 -1 0 -3 -9 -5 -20 -1 -11 -5 -33
-8 -50 -24 -125 -33 -243 -31 -387 1 -73 3 -133 3 -133 1 0 4 -22 6 -50 11
-133 56 -304 112 -425 70 -151 206 -308 311 -360 26 -13 49 -26 52 -30 3 -3
40 -16 82 -29 73 -21 216 -30 273 -17 11 2 34 7 50 11 45 10 130 42 178 66 69
35 157 91 157 100 0 5 5 9 11 9 35 0 256 238 335 360 16 25 31 47 34 50 7 7
29 47 80 145 59 112 124 272 146 358 1 4 3 9 4 12 1 3 3 8 4 13 1 4 5 13 9 20
5 6 6 12 3 12 -2 0 0 15 5 33 18 58 37 152 54 267 44 293 9 645 -87 858 -12
26 -22 49 -23 52 -9 26 -37 76 -74 130 -46 68 -176 200 -197 200 -7 0 -14 4
-16 9 -8 22 -181 87 -238 90 -8 0 -36 2 -62 4 -26 2 -49 3 -51 1z"/>
<path d="M3197 8763 c-1 0 -18 -4 -37 -7 -58 -9 -172 -47 -187 -62 -8 -8 -19
-14 -25 -14 -18 0 -119 -80 -171 -134 -139 -148 -252 -405 -283 -646 -3 -25
-8 -56 -11 -70 -13 -63 -3 -495 12 -520 2 -3 6 -26 9 -50 13 -91 74 -324 96
-362 6 -10 10 -23 10 -29 0 -26 144 -321 165 -339 8 -7 15 -16 15 -21 0 -13
64 -103 119 -169 91 -109 249 -250 279 -250 7 0 12 -4 12 -8 0 -6 104 -65 120
-67 3 -1 21 -8 40 -17 29 -12 72 -24 125 -34 6 -1 12 -3 15 -4 14 -7 168 -6
199 1 20 4 49 10 64 13 16 3 57 18 92 35 181 84 327 253 413 476 29 75 44 117
43 122 0 2 6 21 14 43 8 22 14 41 13 43 -1 2 4 31 17 97 10 52 19 148 19 217
1 40 5 73 9 73 5 0 6 4 2 9 -3 5 -8 56 -10 113 -6 114 -10 158 -19 204 -3 17
-8 46 -10 66 -11 85 -75 313 -110 393 -8 17 -17 40 -20 52 -4 12 -25 58 -47
103 -21 44 -39 85 -39 90 0 6 -4 10 -9 10 -5 0 -12 8 -15 18 -9 27 -116 184
-166 242 -59 70 -132 142 -184 183 -22 17 -42 35 -44 39 -2 5 -9 8 -17 8 -7 0
-18 7 -25 15 -16 19 -186 101 -230 111 -19 4 -42 9 -50 11 -42 11 -187 23
-193 16z"/>
<path d="M1324 7198 c-3 -4 -11 -5 -18 -2 -32 12 -182 -41 -264 -94 -92 -58
-187 -164 -240 -267 -31 -60 -81 -184 -88 -218 -2 -10 -5 -26 -8 -35 -3 -9 -8
-32 -11 -49 -3 -18 -7 -45 -10 -60 -15 -88 -22 -338 -11 -391 3 -13 8 -49 11
-80 6 -61 8 -70 19 -117 4 -16 16 -68 27 -115 11 -47 24 -94 29 -105 4 -11 22
-60 40 -110 68 -189 222 -460 342 -600 78 -91 204 -209 286 -268 67 -48 245
-150 262 -150 7 0 31 -7 58 -18 13 -5 28 -7 33 -4 5 4 9 2 9 -3 0 -5 6 -9 13
-10 6 -1 39 -4 72 -9 115 -14 205 -8 295 20 52 16 140 56 156 72 7 5 32 25 55
44 46 36 138 140 138 155 -1 5 3 12 8 15 15 11 39 56 83 156 11 25 20 58 18
65 -1 3 4 15 10 26 6 12 14 36 17 55 3 19 8 41 10 49 18 64 31 201 29 316 -2
133 -10 207 -39 349 -91 449 -340 880 -655 1135 -30 25 -57 47 -60 50 -4 5
-24 18 -105 67 -94 58 -262 119 -351 129 -93 9 -155 10 -160 2z"/>
<path d="M7618 6955 c-2 -2 -24 -6 -49 -9 -51 -7 -129 -28 -183 -51 -20 -8
-38 -15 -41 -15 -13 1 -183 -98 -230 -135 -11 -8 -41 -31 -67 -51 -27 -20 -48
-41 -48 -45 0 -5 -4 -9 -9 -9 -10 0 -82 -70 -146 -141 -167 -188 -309 -423
-399 -664 -21 -55 -39 -104 -40 -110 -2 -5 -10 -35 -20 -66 -9 -31 -19 -66
-21 -78 -3 -11 -7 -30 -10 -42 -2 -11 -6 -28 -9 -37 -9 -31 -19 -101 -31 -212
-6 -56 -5 -253 1 -300 58 -460 294 -730 653 -744 73 -3 204 15 251 34 14 6 35
12 46 14 30 6 172 77 241 122 132 84 293 234 393 364 19 25 41 49 48 53 6 4
12 12 12 18 0 5 8 19 18 30 11 10 25 32 33 47 8 15 17 29 20 32 3 3 20 32 39
65 18 33 38 67 45 75 10 13 101 212 126 275 45 114 98 319 114 440 16 116 21
332 10 396 -3 20 -8 51 -10 70 -7 50 -21 121 -25 127 -2 1 -3 5 -5 10 -1 4 -5
21 -10 37 -4 17 -19 55 -34 85 -14 30 -25 57 -26 60 0 3 -21 37 -47 75 -90
135 -213 224 -368 265 -39 11 -214 22 -222 15z"/>
<path d="M4260 5890 c-47 -10 -95 -21 -107 -24 -13 -3 -32 -8 -42 -10 -11 -3
-28 -9 -39 -15 -11 -6 -22 -7 -26 -4 -3 3 -6 1 -6 -5 0 -7 -8 -12 -17 -12 -18
0 -24 -3 -127 -59 -121 -66 -255 -179 -344 -289 -20 -26 -40 -48 -44 -50 -5
-2 -8 -7 -8 -12 0 -6 -229 -360 -330 -510 -5 -8 -46 -71 -91 -140 -45 -69
-120 -183 -167 -255 -47 -71 -130 -197 -183 -280 -54 -82 -102 -155 -107 -160
-4 -6 -22 -32 -38 -59 -16 -26 -36 -58 -44 -70 -8 -13 -37 -58 -65 -101 -27
-42 -56 -83 -62 -90 -7 -8 -13 -18 -13 -23 0 -5 -7 -15 -15 -22 -9 -7 -22 -27
-31 -45 -8 -18 -24 -42 -35 -54 -11 -11 -17 -21 -13 -21 4 0 0 -8 -8 -17 -33
-38 -147 -273 -132 -273 2 0 -1 -10 -8 -22 -6 -13 -13 -27 -14 -33 -1 -5 -9
-39 -18 -74 -10 -34 -19 -84 -22 -110 -2 -25 -7 -57 -10 -71 -6 -32 -5 -325 1
-365 5 -32 10 -60 19 -115 4 -19 14 -57 23 -85 10 -27 18 -53 19 -57 1 -5 2
-9 4 -10 1 -2 3 -10 5 -18 6 -31 76 -167 123 -238 148 -225 374 -399 627 -483
42 -14 46 -15 83 -23 13 -3 31 -7 40 -10 9 -3 35 -8 57 -11 23 -3 52 -8 65
-10 27 -6 216 -6 265 -1 17 2 48 6 70 10 36 5 115 15 260 31 28 4 61 8 75 9
14 2 54 7 90 10 36 4 72 9 80 11 13 3 72 11 161 20 14 1 52 6 85 10 96 12 106
14 169 20 121 13 153 15 280 14 166 0 285 -8 375 -24 8 -1 35 -6 60 -10 25 -4
54 -9 65 -12 11 -2 34 -6 50 -8 17 -3 53 -9 80 -15 83 -16 108 -21 145 -26 19
-2 60 -9 90 -15 75 -16 78 -16 140 -25 30 -4 58 -7 63 -6 4 1 7 -1 7 -6 0 -7
196 -6 255 1 72 9 246 60 272 80 7 5 27 16 45 26 85 44 151 94 231 173 55 55
117 133 117 148 0 6 3 10 8 10 4 0 16 20 27 45 11 25 23 45 27 45 5 0 8 8 8
18 0 10 4 22 9 27 8 9 32 74 37 100 1 6 7 30 14 55 13 50 16 60 25 116 3 22 8
53 11 69 16 87 21 131 17 138 -2 4 -1 7 4 7 15 0 6 299 -12 384 -1 6 -5 29 -9
51 -4 22 -14 57 -22 78 -7 20 -12 37 -9 37 2 0 -4 20 -15 45 -11 25 -20 49
-21 53 -10 47 -82 183 -173 322 -44 69 -87 137 -95 153 -8 15 -18 27 -23 27
-4 0 -8 6 -8 13 0 8 -9 22 -20 32 -10 9 -18 20 -17 24 1 3 -28 51 -64 106
-170 260 -225 346 -239 370 -8 14 -51 81 -94 148 -124 190 -196 302 -276 427
-40 63 -77 118 -83 121 -5 3 -7 8 -6 10 3 4 -100 168 -132 209 -11 14 -24 36
-30 50 -6 13 -13 27 -17 30 -4 3 -32 43 -62 90 -54 83 -236 280 -259 280 -6 0
-14 7 -17 15 -4 8 -11 15 -17 15 -5 0 -24 11 -42 24 -39 30 -195 109 -256 129
-53 18 -159 46 -203 54 -81 14 -313 10 -396 -7z"/>
</g>
</svg>
