<svg width="330" height="57" viewBox="0 0 330 57" fill="none" xmlns="http://www.w3.org/2000/svg">
<path d="M294.536 55.5424H33.5454C27.7741 55.5424 22.284 53.0492 18.4861 48.7036L11.7098 40.9499C5.03327 33.3105 5.13462 21.8823 11.9456 14.3625L18.5088 7.11619C22.3002 2.93023 27.6846 0.542389 33.3323 0.542389H294.746C300.056 0.542389 305.149 2.65459 308.901 6.4133L316.147 13.6723C323.841 21.3813 323.952 33.8303 316.397 41.6755L308.941 49.4165C305.171 53.3308 299.97 55.5424 294.536 55.5424Z" fill="#5E5E5E" stroke="#5E5E5E"/>
<ellipse rx="3.66238" ry="5.57625" transform="matrix(0.669585 -0.742736 0.717712 0.69634 18.933 32.5876)" fill="#FFA0B1"/>
<ellipse rx="3.59744" ry="5.67387" transform="matrix(0.97088 -0.239567 0.223479 0.974709 29.7102 19.4393)" fill="#FFA0B1"/>
<ellipse rx="3.64425" ry="5.60384" transform="matrix(0.763972 -0.645249 0.617369 0.786674 21.9562 23.9627)" fill="#FFA0B1"/>
<path d="M40.4411 30.8691L32.7493 26.8197C30.927 25.8604 28.6902 26.2205 27.261 27.7031C26.5006 28.4919 26.0447 29.525 25.9744 30.6184L25.4271 39.1361C25.362 40.1484 25.5875 41.1583 26.0769 42.0468L26.255 42.3702C27.0815 43.8707 28.659 44.8027 30.372 44.8027C31.3903 44.8027 32.381 44.472 33.1951 43.8604L36.2295 41.5809C37.019 40.9878 37.8931 40.5165 38.8225 40.1828L40.9824 39.4071C41.853 39.0945 42.5796 38.475 43.0258 37.6648C43.5471 36.7185 43.6407 35.595 43.2833 34.5755L43.0407 33.8832C42.586 32.5862 41.6573 31.5093 40.4411 30.8691Z" fill="#FFA0B1"/>
<ellipse rx="3.59256" ry="5.68107" transform="matrix(0.990383 -0.138354 0.128725 0.99168 38.6865 22.3142)" fill="#FFA0B1"/>
<ellipse rx="3.66" ry="5.57794" transform="matrix(0.993328 0.0342033 -0.0579362 1.0044 285.151 23.6482)" fill="#FFA0B1"/>
<ellipse rx="3.62044" ry="5.63776" transform="matrix(0.804701 0.58895 -0.591564 0.809584 302.026 23.424)" fill="#FFA0B1"/>
<ellipse rx="3.64893" ry="5.59481" transform="matrix(0.979361 0.169926 -0.191258 0.987567 293.596 20.3833)" fill="#FFA0B1"/>
<path d="M300.402 39.14L298.44 30.5123C297.983 28.5046 296.283 27.0376 294.251 26.8988C293.149 26.8234 292.055 27.15 291.169 27.8195L284.461 32.8842C283.645 33.5005 283.022 34.3422 282.667 35.3079L282.558 35.6024C281.959 37.2345 282.277 39.0656 283.391 40.3891C284.05 41.1719 284.94 41.7192 285.931 41.9505L289.61 42.8094C290.568 43.033 291.487 43.3997 292.337 43.8974L294.349 45.0747C295.134 45.5344 296.059 45.6886 296.949 45.5085C298.006 45.295 298.92 44.6311 299.459 43.6869L299.821 43.0527C300.497 41.8689 300.704 40.4706 300.402 39.14Z" fill="#FFA0B1"/>
<ellipse rx="3.61748" ry="5.64218" transform="matrix(0.741266 0.668755 -0.666582 0.747544 305.687 32.2055)" fill="#FFA0B1"/>
<path d="M52.36 44C51.96 44 51.72 43.92 51.64 43.76C51.5867 43.5733 51.5733 43.2 51.6 42.64C51.6 41.76 51.5867 40.92 51.56 40.12L51.48 35.2C51.48 34.4533 51.5067 33.68 51.56 32.88C51.6133 32.0533 51.6533 31.32 51.68 30.68C51.8133 28.76 51.88 27.4133 51.88 26.64L51.96 19.12L51.92 16.96C51.92 16.0267 51.9867 15.4933 52.12 15.36C52.2 15.28 52.2933 15.24 52.4 15.24C52.4533 15.24 52.5467 15.2667 52.68 15.32C52.8133 15.3467 52.96 15.36 53.12 15.36L54.36 15.32C54.8667 15.32 55.24 15.3467 55.48 15.4C55.72 15.48 55.8933 15.68 56 16C56.1067 16.2933 56.2 16.64 56.28 17.04C56.36 17.4133 56.4267 17.7067 56.48 17.92C56.6133 18.64 56.92 19.64 57.4 20.92C57.9067 22.2 58.3867 23.32 58.84 24.28C59.2133 24.92 59.7067 25.96 60.32 27.4C60.96 28.8133 61.4133 29.9333 61.68 30.76C61.84 31.1867 62.0667 31.72 62.36 32.36L62.96 33.8L63.8 35.68C64.5733 34.16 65.1333 33.0533 65.48 32.36L68.08 27.16L69.88 23.56C70.8133 21.64 71.44 20.4 71.76 19.84C72.2667 18.8 72.8 17.84 73.36 16.96C73.92 16.0533 74.32 15.6 74.56 15.6C74.7733 15.6 74.88 15.7733 74.88 16.12C74.88 16.44 74.8133 16.8667 74.68 17.4L74.52 18.4C74.4133 19.12 74.36 22.32 74.36 28C74.36 29.2533 74.32 30.7733 74.24 32.56C74.1867 34.3467 74.1333 35.5333 74.08 36.12C74.0267 36.8133 74 37.84 74 39.2L74.04 43.08V43.28C74.04 43.6 73.96 43.7333 73.8 43.68H73.72C73.5867 43.68 73.4267 43.6933 73.24 43.72C73.08 43.7467 72.9067 43.76 72.72 43.76C72.6133 43.7333 72.5333 43.6667 72.48 43.56C72.4533 43.4533 72.44 43.2667 72.44 43V40.64C72.44 37.92 72.4667 36.32 72.52 35.84C72.5733 35.28 72.6267 34.24 72.68 32.72C72.76 31.2 72.8 29.9733 72.8 29.04C72.7733 28.8 72.7867 28.0533 72.84 26.8L72.88 25.36L72.96 22.48C72.7733 22.7467 72.6133 23.0267 72.48 23.32C72.2133 23.7733 71.96 24.2667 71.72 24.8L71.32 25.6C70.8667 26.48 70.3467 27.52 69.76 28.72C69.1733 29.8933 68.6667 30.8933 68.24 31.72C67.76 32.68 67.1467 33.92 66.4 35.44C65.68 36.9333 65.12 38.12 64.72 39C64.0267 40.6267 63.6267 41.44 63.52 41.44C63.44 41.44 63.32 41.3067 63.16 41.04C63 40.7733 62.8933 40.6 62.84 40.52C62.6533 40.2267 62.36 39.6133 61.96 38.68C61.56 37.72 61.24 36.88 61 36.16C60.84 35.68 60.1467 34.3333 58.92 32.12C57.96 30.28 57.4667 29.32 57.44 29.24C57.1733 28.7067 56.8133 27.8133 56.36 26.56C56.0667 25.8933 55.84 25.3067 55.68 24.8L55.6 26.56L55.52 29.28L55.44 37.16L55.4 43.4C55.4 43.64 55.3333 43.7867 55.2 43.84C55.0667 43.8933 54.9067 43.92 54.72 43.92C54.5333 43.8933 54.3867 43.88 54.28 43.88L53.4 43.92C52.92 43.9733 52.5733 44 52.36 44ZM88.1641 44.88C84.1641 44.88 81.4974 43.5333 80.1641 40.84C78.8307 38.12 78.1641 35.2133 78.1641 32.12C78.1641 29.1333 78.6174 26.7467 79.5241 24.96C80.4307 23.1467 81.5241 21.88 82.8041 21.16C84.1107 20.44 85.4174 20.08 86.7241 20.08C89.1774 20.08 91.0174 20.7867 92.2441 22.2C93.4974 23.6133 94.2974 25.2667 94.6441 27.16C95.0174 29.0267 95.2041 31.0533 95.2041 33.24C95.2041 33.4267 95.0707 33.5467 94.8041 33.6C93.9241 33.6 91.8974 33.7467 88.7241 34.04C88.2174 34.0933 87.6041 34.16 86.8841 34.24C86.1641 34.2933 85.3641 34.3467 84.4841 34.4C84.7241 36.9867 86.1241 38.28 88.6841 38.28C89.5374 38.28 90.1907 38.2 90.6441 38.04C91.1241 37.88 91.8841 37.5467 92.9241 37.04C93.1107 37.04 93.2707 37.1467 93.4041 37.36C93.5641 37.5733 93.7774 38.0133 94.0441 38.68C94.1241 38.8133 94.2174 39.0667 94.3241 39.44C94.4574 39.8133 94.5774 40.0933 94.6841 40.28C95.1907 41.56 95.4307 42.2267 95.4041 42.28C95.3507 42.3867 95.2041 42.5333 94.9641 42.72C94.4041 43.28 93.4974 43.7733 92.2441 44.2C91.0174 44.6533 89.6574 44.88 88.1641 44.88ZM89.1241 31.68C88.9107 28.64 88.1774 27.12 86.9241 27.12C86.1774 27.12 85.6041 27.56 85.2041 28.44C84.8041 29.2933 84.5641 30.5067 84.4841 32.08L89.1241 31.68ZM107.701 44.44C105.008 44.44 102.941 43.6667 101.501 42.12C100.061 40.5467 99.1276 38.84 98.7009 37C98.2743 35.16 98.0609 33.56 98.0609 32.2C98.0609 28.7067 98.8343 25.8133 100.381 23.52C101.954 21.2267 104.394 20.08 107.701 20.08C109.194 20.08 110.634 20.6267 112.021 21.72C113.434 22.7867 114.568 24.2 115.421 25.96C116.301 27.72 116.741 29.5733 116.741 31.52C116.608 34.0533 116.248 36.2133 115.661 38C114.994 39.8667 114.008 41.4133 112.701 42.64C111.421 43.84 109.754 44.44 107.701 44.44ZM107.861 42.56C110.154 42.56 111.848 41.52 112.941 39.44C114.061 37.36 114.621 34.84 114.621 31.88C114.621 29.8 114.261 28.0267 113.541 26.56C112.848 25.0667 111.941 23.9467 110.821 23.2C109.701 22.4267 108.554 22.04 107.381 22.04C106.101 22.04 104.968 22.5067 103.981 23.44C102.994 24.3467 102.221 25.5733 101.661 27.12C101.128 28.6667 100.861 30.36 100.861 32.2C100.861 35.1867 101.434 37.6667 102.581 39.64C103.754 41.5867 105.514 42.56 107.861 42.56ZM124.496 44.72C124.149 44.72 123.936 44.4133 123.856 43.8C123.829 43.6933 123.749 43.48 123.616 43.16C123.509 42.8133 123.363 42.1733 123.176 41.24C123.096 40.8133 122.896 39.8933 122.576 38.48C122.283 37.04 122.043 35.8933 121.856 35.04C121.509 33.6533 121.229 32.3867 121.016 31.24C120.776 30.2 120.576 29.28 120.416 28.48C119.643 24.96 119.203 23.0267 119.096 22.68C118.989 22.04 118.936 21.68 118.936 21.6C118.936 21.3333 118.989 21.1467 119.096 21.04C119.203 20.9333 119.349 20.8533 119.536 20.8L120.656 20.72C121.456 20.6133 122.096 20.56 122.576 20.56C123.003 20.56 123.269 20.6267 123.376 20.76C123.509 20.8933 123.589 21.0533 123.616 21.24C123.643 21.4 123.669 21.52 123.696 21.6C123.776 21.8667 123.829 22.2 123.856 22.6C123.909 22.84 123.963 23.1333 124.016 23.48C124.069 23.8 124.149 24.1867 124.256 24.64L124.976 27.28C125.376 28.5867 125.669 29.6533 125.856 30.48C125.936 30.8 126.003 31.1733 126.056 31.6C126.109 31.9733 126.176 32.32 126.256 32.64C126.336 32.96 126.429 33.12 126.536 33.12H126.616C126.883 32.9867 127.283 32.3467 127.816 31.2L128.216 30.4L128.936 29.12C129.789 27.7333 130.256 26.9067 130.336 26.64C130.549 26.2667 130.736 26 130.896 25.84C131.083 25.6533 131.269 25.56 131.456 25.56C131.589 25.56 131.683 25.6 131.736 25.68C131.789 25.76 131.829 25.92 131.856 26.16C131.909 26.4 131.963 26.6 132.016 26.76C132.043 26.9733 132.083 27.1867 132.136 27.4C132.189 27.6133 132.229 27.8267 132.256 28.04C132.443 28.84 132.589 29.6267 132.696 30.4C132.856 31.12 133.069 31.76 133.336 32.32C133.416 32.6133 133.536 32.88 133.696 33.12C133.749 32.8533 133.816 32.6533 133.896 32.52L134.256 31.44C134.256 31.3867 134.376 30.9867 134.616 30.24C135.016 28.8267 135.243 27.9867 135.296 27.72C135.483 26.9467 135.776 25.8267 136.176 24.36C136.603 22.8667 136.909 21.88 137.096 21.4C137.203 21 137.336 20.76 137.496 20.68C137.683 20.5733 137.883 20.5333 138.096 20.56C138.336 20.56 138.496 20.56 138.576 20.56H141.256C141.683 20.56 141.896 20.7067 141.896 21C141.896 21.1067 141.883 21.2133 141.856 21.32C141.829 21.4 141.803 21.4933 141.776 21.6C141.723 21.7867 141.589 22.2267 141.376 22.92C141.189 23.6133 140.949 24.4133 140.656 25.32C140.176 26.8133 139.643 28.72 139.056 31.04L138.856 31.8C138.883 31.6667 138.589 32.96 137.976 35.68L137.216 39.12C136.923 40.16 136.536 41.3333 136.056 42.64C135.576 43.9467 135.243 44.6 135.056 44.6C134.816 44.6 134.603 44.44 134.416 44.12C134.256 43.8 134.096 43.36 133.936 42.8C133.749 42.4267 133.483 41.7333 133.136 40.72C132.816 39.7067 132.523 38.7333 132.256 37.8C132.069 37.0533 131.736 35.8667 131.256 34.24L130.576 32.16L130.336 32.72C130.283 32.9067 130.189 33.12 130.056 33.36C129.949 33.6 129.856 33.8 129.776 33.96L127.536 38.64C127.376 39.0667 127.216 39.44 127.056 39.76C126.976 39.9467 126.776 40.4267 126.456 41.2C126.136 41.9467 125.936 42.52 125.856 42.92C125.669 43.4267 125.456 43.8533 125.216 44.2C124.976 44.5467 124.736 44.72 124.496 44.72ZM151.557 44.68C149.93 44.68 148.583 44.48 147.517 44.08C146.45 43.68 145.797 43.3867 145.557 43.2C145.343 42.9867 144.85 42.4933 144.077 41.72C143.917 41.56 143.877 41.4533 143.957 41.4C144.01 41.2667 144.103 41.12 144.237 40.96L144.757 40.32C144.89 40.1333 145.13 39.8267 145.477 39.4C145.557 39.32 145.65 39.28 145.757 39.28C145.863 39.28 146.01 39.3467 146.197 39.48C146.383 39.5867 146.543 39.7067 146.677 39.84C146.703 39.8667 146.85 40 147.117 40.24C147.41 40.4533 147.823 40.6533 148.357 40.84C148.89 41 149.477 41.08 150.117 41.08C150.97 41.08 151.703 40.92 152.317 40.6C152.93 40.2533 153.237 39.5467 153.237 38.48C153.237 37.6267 153.05 36.9067 152.677 36.32C152.33 35.7333 151.89 35.2533 151.357 34.88C150.823 34.48 150.09 34.0267 149.157 33.52C148.117 32.9333 147.277 32.4133 146.637 31.96C145.997 31.48 145.45 30.84 144.997 30.04C144.57 29.24 144.357 28.2533 144.357 27.08C144.357 25.6933 144.73 24.4667 145.477 23.4C146.223 22.3333 147.237 21.52 148.517 20.96C149.823 20.3733 151.263 20.08 152.837 20.08C155.343 20.08 157.237 20.6133 158.517 21.68C159.823 22.72 160.503 23.2533 160.557 23.28C160.663 23.36 160.717 23.4533 160.717 23.56C160.717 23.64 160.69 23.72 160.637 23.8C160.583 23.88 160.543 23.96 160.517 24.04C160.41 24.2 160.223 24.48 159.957 24.88C159.717 25.28 159.517 25.56 159.357 25.72C159.303 25.8 159.237 25.9067 159.157 26.04C159.077 26.1467 158.997 26.2133 158.917 26.24C158.863 26.2667 158.783 26.28 158.677 26.28C158.57 26.2267 158.197 25.9467 157.557 25.44C156.917 24.9067 156.197 24.4133 155.397 23.96C154.623 23.5067 153.957 23.28 153.397 23.28C152.81 23.28 152.397 23.48 152.157 23.88C151.917 24.2533 151.797 24.8933 151.797 25.8C151.797 26.4667 151.957 27.0267 152.277 27.48C152.597 27.9333 152.903 28.2533 153.197 28.44C153.49 28.6267 154.05 28.9333 154.877 29.36C155.863 29.76 156.717 30.1733 157.437 30.6C158.183 31.0267 158.89 31.7733 159.557 32.84C160.25 33.9067 160.597 35.32 160.597 37.08C160.597 42.1467 157.583 44.68 151.557 44.68ZM173.047 44.88C169.047 44.88 166.38 43.5333 165.047 40.84C163.714 38.12 163.047 35.2133 163.047 32.12C163.047 29.1333 163.5 26.7467 164.407 24.96C165.314 23.1467 166.407 21.88 167.687 21.16C168.994 20.44 170.3 20.08 171.607 20.08C174.06 20.08 175.9 20.7867 177.127 22.2C178.38 23.6133 179.18 25.2667 179.527 27.16C179.9 29.0267 180.087 31.0533 180.087 33.24C180.087 33.4267 179.954 33.5467 179.687 33.6C178.807 33.6 176.78 33.7467 173.607 34.04C173.1 34.0933 172.487 34.16 171.767 34.24C171.047 34.2933 170.247 34.3467 169.367 34.4C169.607 36.9867 171.007 38.28 173.567 38.28C174.42 38.28 175.074 38.2 175.527 38.04C176.007 37.88 176.767 37.5467 177.807 37.04C177.994 37.04 178.154 37.1467 178.287 37.36C178.447 37.5733 178.66 38.0133 178.927 38.68C179.007 38.8133 179.1 39.0667 179.207 39.44C179.34 39.8133 179.46 40.0933 179.567 40.28C180.074 41.56 180.314 42.2267 180.287 42.28C180.234 42.3867 180.087 42.5333 179.847 42.72C179.287 43.28 178.38 43.7733 177.127 44.2C175.9 44.6533 174.54 44.88 173.047 44.88ZM174.007 31.68C173.794 28.64 173.06 27.12 171.807 27.12C171.06 27.12 170.487 27.56 170.087 28.44C169.687 29.2933 169.447 30.5067 169.367 32.08L174.007 31.68ZM206.174 44.48C203.214 44.48 200.948 43.3467 199.374 41.08C197.801 38.7867 197.014 35.8 197.014 32.12C197.014 29.8 197.388 27.7467 198.134 25.96C198.881 24.1733 199.921 22.7867 201.254 21.8C202.614 20.8133 204.174 20.32 205.934 20.32C207.641 20.32 209.028 20.6267 210.094 21.24C211.161 21.8533 211.894 22.44 212.294 23C212.321 23.0267 212.388 23.12 212.494 23.28C212.628 23.4133 212.694 23.5467 212.694 23.68C212.694 23.8133 212.561 24 212.294 24.24C212.054 24.48 211.734 24.8533 211.334 25.36C211.068 25.7867 210.854 26 210.694 26C210.614 26 210.521 25.9467 210.414 25.84C210.308 25.7067 210.228 25.6133 210.174 25.56C209.694 25.0533 209.094 24.5733 208.374 24.12C207.681 23.6667 206.988 23.44 206.294 23.44C204.828 23.44 203.601 23.68 202.614 24.16C201.628 24.6133 200.841 25.5333 200.254 26.92C199.668 28.28 199.374 30.24 199.374 32.8C199.374 36.7733 200.028 39.36 201.334 40.56C202.668 41.7333 204.081 42.32 205.574 42.32C206.268 42.32 207.094 42.0267 208.054 41.44C209.041 40.8267 209.908 39.8267 210.654 38.44C210.894 38.1467 211.081 38 211.214 38C211.348 38 211.481 38.0533 211.614 38.16L212.214 38.64C212.454 38.8533 212.708 39.1333 212.974 39.48C213.268 39.8267 213.414 40.08 213.414 40.24C213.414 40.3467 213.374 40.4667 213.294 40.6C212.761 41.4533 211.934 42.32 210.814 43.2C209.694 44.0533 208.148 44.48 206.174 44.48ZM225.284 44.88C221.764 44.88 219.418 43.5333 218.244 40.84C217.071 38.12 216.484 35.2133 216.484 32.12C216.484 29.1333 216.938 26.7467 217.844 24.96C218.751 23.1467 219.844 21.88 221.124 21.16C222.431 20.44 223.738 20.08 225.044 20.08C227.498 20.08 229.351 20.7333 230.604 22.04C231.858 23.32 232.658 24.8533 233.004 26.64C233.351 28.4 233.524 30.3867 233.524 32.6C233.524 34.3867 233.218 36.24 232.604 38.16C232.018 40.0533 231.098 41.6533 229.844 42.96C228.618 44.24 227.098 44.88 225.284 44.88ZM225.004 37.12C225.884 37.12 226.524 36.7067 226.924 35.88C227.351 35.0533 227.564 34.0533 227.564 32.88C227.564 31.36 227.364 30.2933 226.964 29.68C226.591 29.04 226.018 28.72 225.244 28.72C223.591 28.72 222.764 30.2133 222.764 33.2C222.764 34.32 222.911 35.2533 223.204 36C223.498 36.7467 224.098 37.12 225.004 37.12ZM245.679 44.44C243.332 44.44 241.532 43.6533 240.279 42.08C239.052 40.5067 238.252 38.8 237.879 36.96C237.505 35.0933 237.319 33.4667 237.319 32.08C237.319 28.64 237.985 25.8 239.319 23.56C240.679 21.32 242.799 20.2 245.679 20.2C247.492 20.2 249.159 20.64 250.679 21.52L250.719 17.2L250.759 14.6C250.759 14.4133 250.865 14.32 251.079 14.32C251.239 14.32 251.372 14.3333 251.479 14.36C251.612 14.3867 251.719 14.4 251.799 14.4L253.079 14.44C253.319 14.44 253.465 14.48 253.519 14.56C253.572 14.64 253.599 14.76 253.599 14.92C253.599 15 253.599 15.16 253.599 15.4C253.625 15.6133 253.639 15.9867 253.639 16.52L253.479 21.16C253.345 23.7467 253.279 25.52 253.279 26.48V28.64C253.279 29.2267 253.292 29.6933 253.319 30.04L253.399 40.44L253.479 42.12L253.559 43.6C253.559 43.8133 253.505 43.9467 253.399 44C253.319 44.0533 253.225 44.08 253.119 44.08C253.039 44.08 252.985 44.08 252.959 44.08C252.932 44.08 252.865 44.0667 252.759 44.04C252.652 44.0133 252.492 44 252.279 44C252.012 44 251.785 44.0133 251.599 44.04C251.412 44.0667 251.265 44.08 251.159 44.08C250.999 44.08 250.892 44.0533 250.839 44C250.812 43.92 250.799 43.7467 250.799 43.48V43.44C249.359 44.1067 247.652 44.44 245.679 44.44ZM245.839 42.56C248.052 42.56 249.692 41.7067 250.759 40V32.12C250.759 29.5067 250.745 27.96 250.719 27.48C250.692 26.9733 250.679 26.16 250.679 25.04V24.88C250.039 24.0267 249.199 23.3733 248.159 22.92C247.145 22.44 246.105 22.2 245.039 22.2C244.265 22.2 243.492 22.48 242.719 23.04C241.972 23.6 241.345 24.4667 240.839 25.64C240.332 26.8133 240.079 28.2667 240.079 30C240.079 33.3333 240.532 36.2667 241.439 38.8C242.372 41.3067 243.839 42.56 245.839 42.56ZM267.436 44.88C263.436 44.88 260.769 43.5333 259.436 40.84C258.103 38.12 257.436 35.2133 257.436 32.12C257.436 29.1333 257.889 26.7467 258.796 24.96C259.703 23.1467 260.796 21.88 262.076 21.16C263.383 20.44 264.689 20.08 265.996 20.08C268.449 20.08 270.289 20.7867 271.516 22.2C272.769 23.6133 273.569 25.2667 273.916 27.16C274.289 29.0267 274.476 31.0533 274.476 33.24C274.476 33.4267 274.343 33.5467 274.076 33.6C273.196 33.6 271.169 33.7467 267.996 34.04C267.489 34.0933 266.876 34.16 266.156 34.24C265.436 34.2933 264.636 34.3467 263.756 34.4C263.996 36.9867 265.396 38.28 267.956 38.28C268.809 38.28 269.463 38.2 269.916 38.04C270.396 37.88 271.156 37.5467 272.196 37.04C272.383 37.04 272.543 37.1467 272.676 37.36C272.836 37.5733 273.049 38.0133 273.316 38.68C273.396 38.8133 273.489 39.0667 273.596 39.44C273.729 39.8133 273.849 40.0933 273.956 40.28C274.463 41.56 274.703 42.2267 274.676 42.28C274.623 42.3867 274.476 42.5333 274.236 42.72C273.676 43.28 272.769 43.7733 271.516 44.2C270.289 44.6533 268.929 44.88 267.436 44.88ZM268.396 31.68C268.183 28.64 267.449 27.12 266.196 27.12C265.449 27.12 264.876 27.56 264.476 28.44C264.076 29.2933 263.836 30.5067 263.756 32.08L268.396 31.68Z" fill="white"/>
</svg>
