<svg width="719" height="90" viewBox="0 0 719 90" fill="none" xmlns="http://www.w3.org/2000/svg">
<path d="M718.973 12.153C718.973 11.3246 718.302 10.653 717.473 10.653C716.645 10.653 715.973 11.3246 715.973 12.153H718.973ZM671.669 53.0739L671.232 51.6389L671.669 53.0739ZM613.739 61.999L613.647 60.5019L613.739 61.999ZM538.634 59.0521L538.371 60.5289L538.634 59.0521ZM458.981 44.9908L459.193 43.5058L458.981 44.9908ZM420.754 43.9804L420.784 42.4807L420.754 43.9804ZM370.572 35.2236L370.846 33.749L370.572 35.2236ZM275.342 32.024L275.548 33.5098L275.342 32.024ZM188.701 52.9897L188.384 51.5236L188.701 52.9897ZM41.4359 46.4221L40.7938 47.7778L41.4359 46.4221ZM14.5763 7.94301L13.0994 7.68046L14.5763 7.94301ZM36.2997 5.75382L35.4373 6.98111L36.2997 5.75382ZM14.9973 61.999L16.3578 62.6307H16.3578L14.9973 61.999ZM10.1476 88.9931C10.7334 89.5789 11.6832 89.5789 12.269 88.9931L21.8149 79.4472C22.4007 78.8614 22.4007 77.9117 21.8149 77.3259C21.2291 76.7401 20.2794 76.7401 19.6936 77.3259L11.2083 85.8111L2.72302 77.3259C2.13724 76.7401 1.18749 76.7401 0.601704 77.3259C0.0159168 77.9117 0.0159168 78.8614 0.601704 79.4472L10.1476 88.9931ZM12.7001 84.6155C12.6976 83.7871 12.0241 83.1175 11.1956 83.12C10.3672 83.1225 9.69766 83.7961 9.70016 84.6245L12.7001 84.6155ZM9.78102 77.9406C9.74708 78.7683 10.3906 79.4669 11.2183 79.5008C12.046 79.5347 12.7446 78.8912 12.7785 78.0635L9.78102 77.9406ZM13.4315 71.6892C13.5787 70.874 13.0371 70.0938 12.2218 69.9466C11.4066 69.7995 10.6264 70.3411 10.4792 71.1563L13.4315 71.6892ZM12.31 64.5256C12.0194 65.3014 12.4127 66.1659 13.1885 66.4565C13.9643 66.7471 14.8288 66.3538 15.1194 65.578L12.31 64.5256ZM17.6225 60.3493C18.0634 59.6479 17.8522 58.722 17.1508 58.2811C16.4494 57.8403 15.5234 58.0515 15.0826 58.7529L17.6225 60.3493ZM18.4447 54.0594C17.9344 54.712 18.0498 55.6547 18.7024 56.165C19.3551 56.6752 20.2978 56.5598 20.808 55.9072L18.4447 54.0594ZM24.3237 51.5903C24.8552 50.9548 24.771 50.0088 24.1355 49.4773C23.5001 48.9458 22.5541 49.0301 22.0226 49.6655L24.3237 51.5903ZM25.6485 45.3597C25.1152 45.9937 25.1968 46.9399 25.8307 47.4732C26.4647 48.0065 27.4109 47.9249 27.9442 47.291L25.6485 45.3597ZM31.5485 42.9421C32.0704 42.2988 31.9719 41.3542 31.3285 40.8323C30.6852 40.3104 29.7405 40.4088 29.2186 41.0522L31.5485 42.9421ZM32.6498 36.671C32.1527 37.3337 32.2869 38.2739 32.9496 38.771C33.6123 39.2681 34.5526 39.1339 35.0497 38.4712L32.6498 36.671ZM38.3435 33.8008C38.7974 33.1078 38.6035 32.178 37.9105 31.7241C37.2175 31.2702 36.2878 31.4641 35.8338 32.1571L38.3435 33.8008ZM38.6069 27.4499C38.2273 28.1862 38.5164 29.0909 39.2527 29.4705C39.989 29.8502 40.8937 29.5611 41.2733 28.8247L38.6069 27.4499ZM43.5392 23.4079C43.7849 22.6168 43.3427 21.7763 42.5516 21.5305C41.7604 21.2848 40.9199 21.727 40.6742 22.5181L43.5392 23.4079ZM41.5161 17.4398C41.5171 18.2683 42.1895 18.9391 43.0179 18.9381C43.8463 18.9371 44.5171 18.2648 44.5161 17.4364L41.5161 17.4398ZM43.195 11.3543C42.8444 10.6037 41.9517 10.2795 41.2011 10.6301C40.4505 10.9808 40.1263 11.8735 40.477 12.624L43.195 11.3543ZM37.4787 8.623C38.0855 9.18692 39.0346 9.15212 39.5986 8.54525C40.1625 7.93839 40.1277 6.98928 39.5208 6.42536L37.4787 8.623ZM34.1144 2.93675C33.3456 2.6281 32.4722 3.0011 32.1636 3.76989C31.8549 4.53867 32.2279 5.4121 32.9967 5.72075L34.1144 2.93675ZM27.3472 4.2264C28.1665 4.34844 28.9297 3.78312 29.0518 2.96373C29.1738 2.14434 28.6085 1.38117 27.7891 1.25913L27.3472 4.2264ZM21.1792 1.1325C20.3585 1.24522 19.7845 2.00191 19.8972 2.82264C20.01 3.64336 20.7667 4.21732 21.5874 4.10461L21.1792 1.1325ZM17.0046 6.14686C17.5473 5.52092 17.4798 4.57358 16.8539 4.0309C16.2279 3.48823 15.2806 3.55572 14.7379 4.18166L17.0046 6.14686ZM12.8231 11.031C12.8291 11.8594 13.5055 12.5261 14.3339 12.5201C15.1623 12.514 15.829 11.8376 15.823 11.0092L12.8231 11.031ZM16.7239 16.6833C16.489 15.8889 15.6546 15.4352 14.8601 15.6701C14.0657 15.905 13.6121 16.7394 13.8469 17.5338L16.7239 16.6833ZM16.2844 23.5146C16.6635 24.2512 17.5679 24.5411 18.3045 24.162C19.0412 23.783 19.331 22.8785 18.952 22.1419L16.2844 23.5146ZM22.0565 27.2541C21.5821 26.575 20.647 26.409 19.9679 26.8834C19.2887 27.3577 19.1227 28.2929 19.5971 28.972L22.0565 27.2541ZM23.5095 33.9654C24.0536 34.5901 25.0011 34.6554 25.6258 34.1113C26.2505 33.5672 26.3159 32.6197 25.7718 31.995L23.5095 33.9654ZM29.9547 36.3543C29.3534 35.7844 28.404 35.8099 27.8341 36.4112C27.2643 37.0125 27.2897 37.9619 27.891 38.5318L29.9547 36.3543ZM32.6938 42.6602C33.3484 43.1678 34.2907 43.0486 34.7983 42.3939C35.3059 41.7393 35.1868 40.797 34.5321 40.2894L32.6938 42.6602ZM39.4774 43.677C38.7641 43.2557 37.8443 43.4923 37.4229 44.2056C37.0016 44.9189 37.2382 45.8386 37.9515 46.26L39.4774 43.677ZM43.4448 48.9996C44.2008 49.3385 45.0883 49.0004 45.4272 48.2444C45.766 47.4885 45.4279 46.601 44.672 46.2621L43.4448 48.9996ZM49.9285 48.4894C49.1593 48.1819 48.2864 48.5561 47.9789 49.3254C47.6713 50.0946 48.0456 50.9675 48.8148 51.275L49.9285 48.4894ZM54.2714 53.3307C55.0523 53.6074 55.9096 53.1986 56.1862 52.4177C56.4628 51.6368 56.054 50.7795 55.2732 50.5029L54.2714 53.3307ZM60.6949 52.306C59.904 52.0597 59.0631 52.5012 58.8168 53.2922C58.5705 54.0831 59.012 54.924 59.803 55.1703L60.6949 52.306ZM65.398 56.7984C66.1976 57.0152 67.0215 56.5427 67.2382 55.7431C67.455 54.9436 66.9825 54.1197 66.1829 53.9029L65.398 56.7984ZM71.7278 55.2996C70.921 55.1115 70.1145 55.6131 69.9264 56.4199C69.7383 57.2267 70.2398 58.0332 71.0466 58.2213L71.7278 55.2996ZM76.7395 59.4456C77.5523 59.606 78.3412 59.0772 78.5016 58.2645C78.662 57.4517 78.1332 56.6628 77.3205 56.5024L76.7395 59.4456ZM82.9518 57.5181C82.1342 57.3843 81.363 57.9385 81.2291 58.7561C81.0953 59.5736 81.6495 60.3449 82.4671 60.4787L82.9518 57.5181ZM88.2227 61.3286C89.044 61.437 89.7977 60.859 89.9061 60.0377C90.0144 59.2164 89.4365 58.4628 88.6152 58.3544L88.2227 61.3286ZM94.304 59.0188C93.4799 58.9348 92.7437 59.5348 92.6596 60.3589C92.5756 61.1831 93.1756 61.9193 93.9997 62.0034L94.304 59.0188ZM99.7921 62.5111C100.618 62.5719 101.337 61.9514 101.398 61.1252C101.459 60.2991 100.839 59.58 100.012 59.5192L99.7921 62.5111ZM105.733 59.863C104.906 59.8242 104.203 60.4637 104.165 61.2912C104.126 62.1187 104.765 62.821 105.593 62.8597L105.733 59.863ZM111.399 63.0575C112.227 63.0753 112.913 62.4183 112.931 61.5901C112.949 60.7618 112.292 60.076 111.463 60.0582L111.399 63.0575ZM117.199 60.1121C116.371 60.1141 115.701 60.7874 115.703 61.6158C115.705 62.4442 116.378 63.1141 117.207 63.1121L117.199 60.1121ZM123.012 63.031C123.84 63.0102 124.495 62.3219 124.474 61.4937C124.453 60.6655 123.765 60.0111 122.937 60.032L123.012 63.031ZM128.672 59.825C127.845 59.8637 127.205 60.5659 127.244 61.3934C127.283 62.2209 127.985 62.8604 128.813 62.8217L128.672 59.825ZM134.606 62.491C135.432 62.4354 136.057 61.7203 136.002 60.8937C135.946 60.0672 135.231 59.4422 134.404 59.4977L134.606 62.491ZM140.131 59.0567C139.305 59.1282 138.694 59.8553 138.766 60.6806C138.837 61.5059 139.564 62.117 140.389 62.0455L140.131 59.0567ZM146.162 61.4918C146.986 61.4053 147.584 60.6672 147.497 59.8433C147.411 59.0194 146.673 58.4217 145.849 58.5082L146.162 61.4918ZM151.557 57.8582C150.735 57.9589 150.15 58.7072 150.251 59.5295C150.352 60.3518 151.1 60.9367 151.922 60.8359L151.557 57.8582ZM157.67 60.0834C158.491 59.9692 159.063 59.2115 158.949 58.391C158.835 57.5704 158.077 56.9978 157.257 57.112L157.67 60.0834ZM162.945 56.2752C162.126 56.4021 161.566 57.1685 161.692 57.9872C161.819 58.8059 162.586 59.3667 163.404 59.2399L162.945 56.2752ZM169.123 58.3108C169.94 58.172 170.49 57.3975 170.351 56.5807C170.212 55.764 169.438 55.2144 168.621 55.3531L169.123 58.3108ZM174.283 54.3508C173.468 54.5007 172.929 55.2828 173.079 56.0975C173.229 56.9123 174.011 57.4512 174.826 57.3012L174.283 54.3508ZM180.515 56.2157C181.327 56.0552 181.856 55.2663 181.696 54.4535C181.535 53.6408 180.746 53.1121 179.934 53.2725L180.515 56.2157ZM185.573 52.1228C184.762 52.2932 184.243 53.0885 184.414 53.8992C184.584 54.7099 185.379 55.229 186.19 55.0587L185.573 52.1228ZM192.143 53.7633C192.951 53.58 193.457 52.7764 193.274 51.9686C193.09 51.1607 192.287 50.6543 191.479 50.8376L192.143 53.7633ZM197.654 49.3778C196.849 49.5752 196.357 50.3874 196.554 51.192C196.752 51.9966 197.564 52.4888 198.368 52.2915L197.654 49.3778ZM204.565 50.7244C205.367 50.5161 205.848 49.6972 205.64 48.8954C205.431 48.0936 204.612 47.6125 203.811 47.8208L204.565 50.7244ZM209.954 46.1902C209.155 46.4064 208.682 47.2299 208.898 48.0297C209.114 48.8294 209.938 49.3024 210.737 49.0862L209.954 46.1902ZM216.891 47.4007C217.689 47.1797 218.157 46.3533 217.936 45.5549C217.715 44.7565 216.889 44.2884 216.091 44.5094L216.891 47.4007ZM222.225 42.8018C221.427 43.0246 220.961 43.8521 221.184 44.65C221.407 45.4479 222.234 45.9141 223.032 45.6913L222.225 42.8018ZM229.167 43.9815C229.965 43.76 230.433 42.9333 230.211 42.135C229.99 41.3368 229.163 40.8692 228.365 41.0908L229.167 43.9815ZM234.516 39.3995C233.716 39.6167 233.244 40.4409 233.462 41.2403C233.679 42.0398 234.503 42.5117 235.303 42.2945L234.516 39.3995ZM241.445 40.6537C242.246 40.4438 242.725 39.624 242.516 38.8226C242.306 38.0212 241.486 37.5416 240.685 37.7515L241.445 40.6537ZM246.877 36.1707C246.073 36.3701 245.582 37.1836 245.782 37.9877C245.981 38.7918 246.795 39.2819 247.599 39.0824L246.877 36.1707ZM253.77 37.6045C254.578 37.4186 255.081 36.6134 254.895 35.8061C254.709 34.9988 253.904 34.4951 253.097 34.681L253.77 37.6045ZM259.35 33.3069C258.539 33.4761 258.019 34.2706 258.188 35.0816C258.357 35.8926 259.152 36.4128 259.963 36.2436L259.35 33.3069ZM266.178 35.0237C266.993 34.8743 267.533 34.0927 267.383 33.2779C267.234 32.463 266.452 31.9235 265.638 32.0729L266.178 35.0237ZM271.961 31.0036C271.142 31.1299 270.581 31.8961 270.707 32.7148C270.834 33.5336 271.6 34.0948 272.419 33.9684L271.961 31.0036ZM278.494 33.1205C279.315 33.017 279.898 32.2669 279.795 31.4449C279.691 30.623 278.941 30.0405 278.119 30.1439L278.494 33.1205ZM284.098 29.4662C283.273 29.5495 282.673 30.2852 282.756 31.1095C282.839 31.9337 283.575 32.5343 284.399 32.451L284.098 29.4662ZM290.321 31.9229C291.147 31.859 291.765 31.1376 291.701 30.3116C291.637 29.4857 290.915 28.8679 290.089 28.9319L290.321 31.9229ZM296.09 28.5359C295.263 28.5811 294.629 29.2884 294.675 30.1156C294.72 30.9428 295.427 31.5767 296.254 31.5314L296.09 28.5359ZM302.196 31.2719C303.024 31.2447 303.673 30.5515 303.646 29.7235C303.619 28.8956 302.926 28.2464 302.098 28.2735L302.196 31.2719ZM308.108 28.1404C307.28 28.15 306.616 28.8293 306.626 29.6577C306.636 30.4861 307.315 31.1498 308.143 31.1402L308.108 28.1404ZM314.093 31.1324C314.921 31.1398 315.599 30.4742 315.606 29.6458C315.613 28.8174 314.948 28.1399 314.119 28.1325L314.093 31.1324ZM320.129 28.2463C319.301 28.2223 318.61 28.8743 318.586 29.7023C318.562 30.5304 319.214 31.2211 320.042 31.245L320.129 28.2463ZM325.989 31.4749C326.816 31.5149 327.519 30.8765 327.559 30.0491C327.599 29.2216 326.961 28.5184 326.134 28.4784L325.989 31.4749ZM332.132 28.8259C331.306 28.7701 330.591 29.395 330.535 30.2215C330.479 31.0481 331.104 31.7633 331.931 31.8191L332.132 28.8259ZM337.865 32.2751C338.691 32.3462 339.418 31.7348 339.489 30.9094C339.56 30.0841 338.948 29.3573 338.123 29.2862L337.865 32.2751ZM344.104 29.857C343.28 29.7707 342.542 30.3688 342.456 31.1927C342.369 32.0166 342.967 32.7544 343.791 32.8407L344.104 29.857ZM349.706 33.514C350.529 33.6151 351.277 33.0305 351.378 32.2082C351.479 31.386 350.895 30.6375 350.073 30.5364L349.706 33.514ZM356.028 31.3228C355.208 31.207 354.449 31.7781 354.333 32.5984C354.217 33.4187 354.788 34.1776 355.609 34.2933L356.028 31.3228ZM361.496 35.1775C362.315 35.3077 363.083 34.7501 363.214 33.932C363.344 33.1139 362.786 32.3451 361.968 32.2148L361.496 35.1775ZM367.892 33.2116C367.076 33.0669 366.297 33.6109 366.153 34.4266C366.008 35.2423 366.552 36.0208 367.368 36.1655L367.892 33.2116ZM373.405 37.3023C374.218 37.466 375.009 36.9404 375.172 36.1283C375.336 35.3162 374.81 34.5252 373.998 34.3615L373.405 37.3023ZM380.265 35.6945C379.456 35.5153 378.655 36.0257 378.476 36.8345C378.297 37.6433 378.807 38.4442 379.616 38.6235L380.265 35.6945ZM385.829 40.0262C386.636 40.2101 387.44 39.7044 387.624 38.8967C387.808 38.0889 387.302 37.285 386.495 37.1011L385.829 40.0262ZM392.706 38.499C391.897 38.3209 391.097 38.8324 390.919 39.6415C390.741 40.4506 391.253 41.2508 392.062 41.4289L392.706 38.499ZM398.333 42.7493C399.145 42.9109 399.935 42.3831 400.096 41.5706C400.258 40.7581 399.73 39.9684 398.918 39.8069L398.333 42.7493ZM405.142 40.9428C404.324 40.8087 403.553 41.3628 403.419 42.1803C403.285 42.9978 403.839 43.7692 404.656 43.9032L405.142 40.9428ZM411.042 44.8031C411.865 44.8983 412.609 44.3085 412.704 43.4855C412.8 42.6626 412.21 41.9182 411.387 41.823L411.042 44.8031ZM417.65 42.3634C416.823 42.3181 416.115 42.952 416.07 43.7792C416.025 44.6064 416.659 45.3136 417.486 45.3589L417.65 42.3634ZM423.936 45.5182C424.765 45.5222 425.44 44.8539 425.444 44.0255C425.448 43.1971 424.779 42.5222 423.951 42.5182L423.936 45.5182ZM430.306 42.4894C429.478 42.4984 428.814 43.1773 428.823 44.0057C428.832 44.834 429.511 45.4983 430.339 45.4892L430.306 42.4894ZM436.714 45.4175C437.543 45.4104 438.209 44.7331 438.201 43.9047C438.194 43.0763 437.517 42.4105 436.689 42.4177L436.714 45.4175ZM443.098 42.418C442.27 42.4083 441.59 43.0719 441.581 43.9003C441.571 44.7287 442.235 45.4081 443.063 45.4178L443.098 42.418ZM449.381 45.6036C450.209 45.6451 450.913 45.0081 450.955 44.1807C450.996 43.3533 450.359 42.6489 449.532 42.6073L449.381 45.6036ZM455.976 43.1048C455.152 43.0164 454.413 43.6125 454.324 44.4362C454.236 45.2599 454.832 45.9993 455.656 46.0876L455.976 43.1048ZM461.621 46.8898C462.441 47.0106 463.203 46.4442 463.324 45.6246C463.445 44.8051 462.878 44.0427 462.059 43.9219L461.621 46.8898ZM467.783 44.7907C466.965 44.6631 466.198 45.2232 466.07 46.0417C465.942 46.8603 466.503 47.6273 467.321 47.7549L467.783 44.7907ZM473.016 48.6646C473.833 48.7982 474.605 48.2437 474.738 47.4261C474.872 46.6085 474.317 45.8374 473.5 45.7038L473.016 48.6646ZM479.208 46.6555C478.391 46.5168 477.617 47.0664 477.478 47.8831C477.339 48.6999 477.889 49.4744 478.706 49.6131L479.208 46.6555ZM484.392 50.5949C485.208 50.7379 485.985 50.1924 486.128 49.3765C486.271 48.5605 485.726 47.783 484.91 47.64L484.392 50.5949ZM490.605 48.6517C489.789 48.5051 489.01 49.0472 488.863 49.8626C488.716 50.6779 489.259 51.4577 490.074 51.6043L490.605 48.6517ZM495.754 52.636C496.569 52.7853 497.35 52.2458 497.5 51.431C497.649 50.6161 497.11 49.8345 496.295 49.6851L495.754 52.636ZM501.98 50.7348C501.166 50.5835 500.383 51.1211 500.231 51.9356C500.08 52.75 500.618 53.533 501.432 53.6843L501.98 50.7348ZM507.11 54.7439C507.924 54.8964 508.708 54.36 508.86 53.5457C509.013 52.7314 508.476 51.9477 507.662 51.7952L507.11 54.7439ZM513.342 52.8609C512.527 52.7079 511.743 53.244 511.591 54.0582C511.438 54.8724 511.974 55.6564 512.788 55.8093L513.342 52.8609ZM518.467 56.8751C519.282 57.0276 520.065 56.4912 520.218 55.6769C520.37 54.8626 519.834 54.0789 519.02 53.9263L518.467 56.8751ZM524.697 54.9862C523.883 54.8349 523.1 55.3724 522.949 56.1869C522.797 57.0014 523.335 57.7844 524.149 57.9357L524.697 54.9862ZM529.835 58.9858C530.649 59.1352 531.431 58.5958 531.581 57.781C531.73 56.9661 531.19 56.1844 530.376 56.035L529.835 58.9858ZM536.055 57.0671C535.24 56.9205 534.46 57.4625 534.314 58.2779C534.167 59.0932 534.709 59.8731 535.524 60.0197L536.055 57.0671ZM541.487 61.0585C542.305 61.1912 543.075 60.6358 543.208 59.8181C543.341 59.0003 542.785 58.2299 541.968 58.0972L541.487 61.0585ZM548.137 59.0075C547.316 58.898 546.561 59.4749 546.452 60.2961C546.342 61.1172 546.919 61.8717 547.74 61.9812L548.137 59.0075ZM554.012 62.7333C554.836 62.8214 555.575 62.2251 555.663 61.4014C555.751 60.5776 555.155 59.8385 554.331 59.7504L554.012 62.7333ZM560.545 60.3388C559.72 60.2705 558.995 60.8843 558.927 61.7099C558.858 62.5355 559.472 63.2602 560.298 63.3286L560.545 60.3388ZM566.593 63.779C567.42 63.8291 568.131 63.1994 568.181 62.3725C568.231 61.5456 567.601 60.8346 566.775 60.7845L566.593 63.779ZM573.014 61.0978C572.186 61.0646 571.488 61.7087 571.455 62.5365C571.422 63.3643 572.066 64.0622 572.894 64.0954L573.014 61.0978ZM579.197 64.2878C580.026 64.3054 580.711 63.6482 580.729 62.8199C580.746 61.9917 580.089 61.306 579.261 61.2885L579.197 64.2878ZM585.512 61.3653C584.683 61.3623 584.009 62.0314 584.007 62.8599C584.004 63.6883 584.673 64.3623 585.501 64.3653L585.512 61.3653ZM591.804 64.3359C592.632 64.3254 593.295 63.6453 593.285 62.817C593.274 61.9886 592.594 61.3256 591.766 61.3362L591.804 64.3359ZM598.02 61.2085C597.192 61.2316 596.539 61.9217 596.562 62.7498C596.585 63.5779 597.275 64.2305 598.103 64.2074L598.02 61.2085ZM604.398 63.9865C605.226 63.9517 605.869 63.2525 605.834 62.4248C605.799 61.5971 605.1 60.9543 604.272 60.9892L604.398 63.9865ZM610.524 60.6844C609.697 60.7301 609.063 61.4377 609.109 62.2649C609.155 63.092 609.862 63.7255 610.69 63.6798L610.524 60.6844ZM616.77 63.3063C617.596 63.2503 618.221 62.5349 618.165 61.7083C618.109 60.8818 617.393 60.2572 616.567 60.3132L616.77 63.3063ZM622.406 59.8788C621.58 59.9459 620.965 60.6696 621.033 61.4953C621.1 62.321 621.823 62.936 622.649 62.8689L622.406 59.8788ZM628.522 62.3486C629.346 62.2692 629.95 61.5364 629.871 60.7118C629.792 59.8872 629.059 59.283 628.234 59.3624L628.522 62.3486ZM634.052 58.7549C633.229 58.8479 632.637 59.5906 632.73 60.4138C632.823 61.237 633.565 61.8289 634.388 61.736L634.052 58.7549ZM640.247 61.0205C641.068 60.9123 641.646 60.1588 641.538 59.3375C641.43 58.5161 640.676 57.938 639.855 58.0462L640.247 61.0205ZM645.64 57.224C644.821 57.3493 644.259 58.1147 644.384 58.9336C644.509 59.7525 645.275 60.3148 646.094 60.1895L645.64 57.224ZM651.924 59.2276C652.74 59.0828 653.284 58.3042 653.139 57.4885C652.994 56.6729 652.216 56.129 651.4 56.2738L651.924 59.2276ZM657.129 55.1777C656.317 55.3448 655.795 56.138 655.962 56.9494C656.129 57.7608 656.923 58.2831 657.734 58.116L657.129 55.1777ZM663.514 56.8309C664.32 56.6378 664.816 55.8281 664.623 55.0225C664.43 54.2169 663.621 53.7204 662.815 53.9135L663.514 56.8309ZM668.446 52.4528C667.649 52.6766 667.183 53.5046 667.407 54.3022C667.631 55.0999 668.459 55.5651 669.257 55.3414L668.446 52.4528ZM674.77 53.6931C675.562 53.4488 676.005 52.6091 675.761 51.8175C675.517 51.0259 674.677 50.5822 673.885 50.8265L674.77 53.6931ZM679.164 49.153C678.377 49.4112 677.948 50.2586 678.206 51.0458C678.464 51.8329 679.312 52.2618 680.099 52.0036L679.164 49.153ZM685.404 50.1783C686.183 49.8957 686.585 49.0353 686.303 48.2566C686.02 47.4779 685.16 47.0757 684.381 47.3583L685.404 50.1783ZM689.502 45.3726C688.737 45.691 688.375 46.5692 688.693 47.3339C689.012 48.0987 689.89 48.4605 690.655 48.1421L689.502 45.3726ZM695.812 45.8063C696.555 45.4391 696.859 44.5394 696.492 43.7968C696.124 43.0542 695.225 42.75 694.482 43.1172L695.812 45.8063ZM699.246 40.5097C698.538 40.9403 698.314 41.8631 698.744 42.5708C699.175 43.2785 700.098 43.5031 700.805 43.0725L699.246 40.5097ZM705.53 39.8288C706.184 39.3199 706.301 38.3775 705.792 37.7238C705.284 37.07 704.341 36.9526 703.687 37.4615L705.53 39.8288ZM707.661 33.8943C707.088 34.4927 707.108 35.4422 707.707 36.0151C708.305 36.588 709.255 36.5674 709.828 35.969L707.661 33.8943ZM713.479 31.442C713.94 30.7537 713.756 29.822 713.068 29.361C712.379 28.8999 711.448 29.084 710.987 29.7723L713.479 31.442ZM713.501 25.1377C713.176 25.8997 713.53 26.7809 714.292 27.1061C715.054 27.4313 715.935 27.0772 716.26 26.3152L713.501 25.1377ZM718.049 20.775C718.233 19.9673 717.727 19.1634 716.919 18.9795C716.111 18.7955 715.307 19.3013 715.124 20.109L718.049 20.775ZM715.884 14.8377C715.828 15.6643 716.453 16.3797 717.279 16.4356C718.106 16.4915 718.821 15.8668 718.877 15.0403L715.884 14.8377ZM12.7083 87.9325C12.7083 86.7802 12.7033 85.6746 12.7001 84.6155L9.70016 84.6245C9.70336 85.6894 9.70831 86.7862 9.70831 87.9325H12.7083ZM12.7785 78.0635C12.8696 75.8409 13.0573 73.7621 13.4315 71.6892L10.4792 71.1563C10.0736 73.4034 9.87591 75.6264 9.78102 77.9406L12.7785 78.0635ZM15.1194 65.578C15.4761 64.6256 15.8861 63.6466 16.3578 62.6307L13.6368 61.3674C13.1346 62.4489 12.6948 63.4983 12.31 64.5256L15.1194 65.578ZM16.3578 62.6307C16.6824 61.9316 17.1063 61.1706 17.6225 60.3493L15.0826 58.7529C14.5191 59.6493 14.0285 60.5237 13.6368 61.3674L16.3578 62.6307ZM20.808 55.9072C21.88 54.5362 23.0658 53.0942 24.3237 51.5903L22.0226 49.6655C20.7568 51.1788 19.5467 52.6499 18.4447 54.0594L20.808 55.9072ZM27.9442 47.291C29.1369 45.8732 30.3502 44.4193 31.5485 42.9421L29.2186 41.0522C28.0369 42.5089 26.8368 43.9471 25.6485 45.3597L27.9442 47.291ZM35.0497 38.4712C36.2065 36.9289 37.3168 35.3682 38.3435 33.8008L35.8338 32.1571C34.8495 33.66 33.7774 35.1677 32.6498 36.671L35.0497 38.4712ZM41.2733 28.8247C42.2027 27.0224 42.9793 25.2106 43.5392 23.4079L40.6742 22.5181C40.1772 24.1182 39.4751 25.7663 38.6069 27.4499L41.2733 28.8247ZM44.5161 17.4364C44.5137 15.351 44.1076 13.3077 43.195 11.3543L40.477 12.624C41.188 14.1461 41.5142 15.7518 41.5161 17.4398L44.5161 17.4364ZM39.5208 6.42536C38.8138 5.76835 38.0284 5.13526 37.1622 4.52653L35.4373 6.98111C36.201 7.51777 36.8791 8.06589 37.4787 8.623L39.5208 6.42536ZM37.1622 4.52653C36.3251 3.93832 35.2733 3.40203 34.1144 2.93675L32.9967 5.72075C34.0169 6.13036 34.846 6.5656 35.4373 6.98111L37.1622 4.52653ZM27.7891 1.25913C25.5984 0.932863 23.2973 0.841628 21.1792 1.1325L21.5874 4.10461C23.3531 3.86212 25.3582 3.93019 27.3472 4.2264L27.7891 1.25913ZM14.7379 4.18166C13.9108 5.13569 13.3441 6.30427 13.0994 7.68046L16.0531 8.20556C16.2057 7.34734 16.5423 6.68011 17.0046 6.14686L14.7379 4.18166ZM13.0994 7.68046C12.9031 8.78513 12.8149 9.90452 12.8231 11.031L15.823 11.0092C15.816 10.054 15.8909 9.11821 16.0531 8.20556L13.0994 7.68046ZM13.8469 17.5338C14.442 19.5467 15.2742 21.5513 16.2844 23.5146L18.952 22.1419C18.0138 20.3187 17.2577 18.489 16.7239 16.6833L13.8469 17.5338ZM19.5971 28.972C20.8012 30.696 22.1189 32.3687 23.5095 33.9654L25.7718 31.995C24.4455 30.4723 23.1947 28.8836 22.0565 27.2541L19.5971 28.972ZM27.891 38.5318C29.4655 40.024 31.0813 41.4099 32.6938 42.6602L34.5321 40.2894C33.0001 39.1015 31.4593 37.7803 29.9547 36.3543L27.891 38.5318ZM37.9515 46.26C38.9179 46.8309 39.869 47.3397 40.7938 47.7778L42.078 45.0665C41.2451 44.672 40.3748 44.2071 39.4774 43.677L37.9515 46.26ZM40.7938 47.7778C41.6741 48.1948 42.5578 48.602 43.4448 48.9996L44.672 46.2621C43.804 45.873 42.9393 45.4745 42.078 45.0665L40.7938 47.7778ZM48.8148 51.275C50.6218 51.9975 52.441 52.6823 54.2714 53.3307L55.2732 50.5029C53.4797 49.8676 51.6978 49.1968 49.9285 48.4894L48.8148 51.275ZM59.803 55.1703C61.658 55.7479 63.5233 56.2902 65.398 56.7984L66.1829 53.9029C64.3434 53.4043 62.5138 52.8723 60.6949 52.306L59.803 55.1703ZM71.0466 58.2213C72.9362 58.6618 74.8341 59.0695 76.7395 59.4456L77.3205 56.5024C75.4479 56.1328 73.5833 55.7322 71.7278 55.2996L71.0466 58.2213ZM82.4671 60.4787C84.3795 60.7918 86.2983 61.0747 88.2227 61.3286L88.6152 58.3544C86.7209 58.1044 84.8328 57.8261 82.9518 57.5181L82.4671 60.4787ZM93.9997 62.0034C95.9262 62.1998 97.8573 62.3686 99.7921 62.5111L100.012 59.5192C98.1049 59.3787 96.2019 59.2123 94.304 59.0188L93.9997 62.0034ZM105.593 62.8597C107.526 62.9503 109.461 63.0158 111.399 63.0575L111.463 60.0582C109.551 60.017 107.64 59.9523 105.733 59.863L105.593 62.8597ZM117.207 63.1121C119.141 63.1073 121.077 63.0799 123.012 63.031L122.937 60.032C121.023 60.0803 119.11 60.1073 117.199 60.1121L117.207 63.1121ZM128.813 62.8217C130.745 62.7313 132.676 62.6207 134.606 62.491L134.404 59.4977C132.495 59.6261 130.584 59.7356 128.672 59.825L128.813 62.8217ZM140.389 62.0455C142.316 61.8786 144.241 61.6936 146.162 61.4918L145.849 58.5082C143.945 58.7082 142.039 58.8914 140.131 59.0567L140.389 62.0455ZM151.922 60.8359C153.843 60.6006 155.759 60.3493 157.67 60.0834L157.257 57.112C155.361 57.3758 153.461 57.6249 151.557 57.8582L151.922 60.8359ZM163.404 59.2399C165.317 58.9436 167.224 58.6335 169.123 58.3108L168.621 55.3531C166.735 55.6735 164.843 55.9812 162.945 56.2752L163.404 59.2399ZM174.826 57.3012C176.731 56.9507 178.627 56.5885 180.515 56.2157L179.934 53.2725C178.058 53.6429 176.174 54.0027 174.283 54.3508L174.826 57.3012ZM186.19 55.0587C187.135 54.86 188.078 54.659 189.018 54.4558L188.384 51.5236C187.449 51.7256 186.512 51.9254 185.573 52.1228L186.19 55.0587ZM189.018 54.4558C190.061 54.2303 191.102 53.9993 192.143 53.7633L191.479 50.8376C190.448 51.0715 189.416 51.3003 188.384 51.5236L189.018 54.4558ZM198.368 52.2915C200.438 51.7837 202.504 51.26 204.565 50.7244L203.811 47.8208C201.76 48.3535 199.709 48.8738 197.654 49.3778L198.368 52.2915ZM210.737 49.0862C212.791 48.531 214.842 47.9678 216.891 47.4007L216.091 44.5094C214.045 45.0755 212.001 45.637 209.954 46.1902L210.737 49.0862ZM223.032 45.6913C225.078 45.1201 227.122 44.549 229.167 43.9815L228.365 41.0908C226.317 41.659 224.27 42.2308 222.225 42.8018L223.032 45.6913ZM235.303 42.2945C237.349 41.7385 239.396 41.1902 241.445 40.6537L240.685 37.7515C238.625 38.2909 236.569 38.8415 234.516 39.3995L235.303 42.2945ZM247.599 39.0824C249.653 38.5729 251.71 38.0789 253.77 37.6045L253.097 34.681C251.019 35.1596 248.945 35.6575 246.877 36.1707L247.599 39.0824ZM259.963 36.2436C262.03 35.8123 264.101 35.4044 266.178 35.0237L265.638 32.0729C263.535 32.4583 261.439 32.8709 259.35 33.3069L259.963 36.2436ZM272.419 33.9684C273.46 33.8077 274.503 33.6546 275.548 33.5098L275.136 30.5382C274.076 30.6852 273.017 30.8405 271.961 31.0036L272.419 33.9684ZM275.548 33.5098C276.528 33.374 277.51 33.2442 278.494 33.1205L278.119 30.1439C277.123 30.2693 276.128 30.4007 275.136 30.5382L275.548 33.5098ZM284.399 32.451C286.367 32.2521 288.341 32.0762 290.321 31.9229L290.089 28.9319C288.087 29.087 286.089 29.2649 284.098 29.4662L284.399 32.451ZM296.254 31.5314C298.231 31.4233 300.212 31.337 302.196 31.2719L302.098 28.2735C300.092 28.3393 298.089 28.4266 296.09 28.5359L296.254 31.5314ZM308.143 31.1402C310.125 31.1171 312.108 31.1147 314.093 31.1324L314.119 28.1325C312.115 28.1146 310.111 28.1171 308.108 28.1404L308.143 31.1402ZM320.042 31.245C322.025 31.3022 324.007 31.379 325.989 31.4749L326.134 28.4784C324.133 28.3816 322.131 28.3041 320.129 28.2463L320.042 31.245ZM331.931 31.8191C333.911 31.9526 335.89 32.1048 337.865 32.2751L338.123 29.2862C336.129 29.1143 334.132 28.9607 332.132 28.8259L331.931 31.8191ZM343.791 32.8407C345.768 33.0475 347.74 33.2721 349.706 33.514L350.073 30.5364C348.088 30.2924 346.098 30.0657 344.104 29.857L343.791 32.8407ZM355.609 34.2933C357.578 34.5713 359.541 34.8661 361.496 35.1775L361.968 32.2148C359.996 31.9007 358.015 31.6032 356.028 31.3228L355.609 34.2933ZM367.368 36.1655C368.346 36.339 369.323 36.5166 370.297 36.6982L370.846 33.749C369.864 33.5658 368.879 33.3867 367.892 33.2116L367.368 36.1655ZM370.297 36.6982C371.333 36.8914 372.369 37.0933 373.405 37.3023L373.998 34.3615C372.949 34.1499 371.898 33.9452 370.846 33.749L370.297 36.6982ZM379.616 38.6235C381.684 39.0818 383.753 39.5536 385.829 40.0262L386.495 37.1011C384.422 36.629 382.344 36.1551 380.265 35.6945L379.616 38.6235ZM392.062 41.4289C394.146 41.8876 396.236 42.3326 398.333 42.7493L398.918 39.8069C396.847 39.3953 394.778 38.9548 392.706 38.499L392.062 41.4289ZM404.656 43.9032C406.776 44.2507 408.904 44.5556 411.042 44.8031L411.387 41.823C409.302 41.5816 407.222 41.2837 405.142 40.9428L404.656 43.9032ZM417.486 45.3589C418.563 45.4178 419.642 45.4589 420.725 45.4801L420.784 42.4807C419.738 42.4601 418.693 42.4205 417.65 42.3634L417.486 45.3589ZM420.725 45.4801C421.796 45.5011 422.866 45.5129 423.936 45.5182L423.951 42.5182C422.893 42.513 421.838 42.5013 420.784 42.4807L420.725 45.4801ZM430.339 45.4892C432.472 45.466 434.589 45.4358 436.714 45.4175L436.689 42.4177C434.561 42.436 432.424 42.4664 430.306 42.4894L430.339 45.4892ZM443.063 45.4178C445.176 45.4425 447.282 45.4982 449.381 45.6036L449.532 42.6073C447.386 42.4996 445.24 42.443 443.098 42.418L443.063 45.4178ZM455.656 46.0876C456.696 46.1992 457.734 46.3278 458.769 46.4757L459.193 43.5058C458.121 43.3527 457.049 43.2198 455.976 43.1048L455.656 46.0876ZM458.769 46.4757C459.719 46.6115 460.67 46.7496 461.621 46.8898L462.059 43.9219C461.104 43.781 460.148 43.6423 459.193 43.5058L458.769 46.4757ZM467.321 47.7549C469.219 48.0509 471.118 48.3544 473.016 48.6646L473.5 45.7038C471.595 45.3926 469.689 45.0879 467.783 44.7907L467.321 47.7549ZM478.706 49.6131C480.601 49.9351 482.496 50.2626 484.392 50.5949L484.91 47.64C483.01 47.3069 481.109 46.9784 479.208 46.6555L478.706 49.6131ZM490.074 51.6043C491.967 51.9448 493.861 52.289 495.754 52.636L496.295 49.6851C494.399 49.3376 492.502 48.9928 490.605 48.6517L490.074 51.6043ZM501.432 53.6843C503.325 54.036 505.217 54.3895 507.11 54.7439L507.662 51.7952C505.769 51.4406 503.875 51.0868 501.98 50.7348L501.432 53.6843ZM512.788 55.8093C514.681 56.1649 516.574 56.5205 518.467 56.8751L519.02 53.9263C517.128 53.5719 515.235 53.2164 513.342 52.8609L512.788 55.8093ZM524.149 57.9357C526.044 58.288 527.94 58.6383 529.835 58.9858L530.376 56.035C528.484 55.688 526.591 55.3381 524.697 54.9862L524.149 57.9357ZM535.524 60.0197C536.473 60.1905 537.422 60.3602 538.371 60.5289L538.896 57.5752C537.949 57.4069 537.003 57.2375 536.055 57.0671L535.524 60.0197ZM538.371 60.5289C539.406 60.7129 540.445 60.8894 541.487 61.0585L541.968 58.0972C540.94 57.9305 539.916 57.7565 538.896 57.5752L538.371 60.5289ZM547.74 61.9812C549.821 62.2585 551.912 62.5087 554.012 62.7333L554.331 59.7504C552.256 59.5284 550.19 59.2812 548.137 59.0075L547.74 61.9812ZM560.298 63.3286C562.391 63.5019 564.49 63.6515 566.593 63.779L566.775 60.7845C564.692 60.6583 562.615 60.5102 560.545 60.3388L560.298 63.3286ZM572.894 64.0954C574.994 64.1797 577.096 64.2433 579.197 64.2878L579.261 61.2885C577.177 61.2444 575.094 61.1813 573.014 61.0978L572.894 64.0954ZM585.501 64.3653C587.605 64.3728 589.707 64.3626 591.804 64.3359L591.766 61.3362C589.684 61.3626 587.599 61.3728 585.512 61.3653L585.501 64.3653ZM598.103 64.2074C600.209 64.1486 602.308 64.0745 604.398 63.9865L604.272 60.9892C602.196 61.0765 600.111 61.1501 598.02 61.2085L598.103 64.2074ZM610.69 63.6798C611.74 63.6217 612.787 63.5605 613.832 63.4962L613.647 60.5019C612.609 60.5658 611.568 60.6267 610.524 60.6844L610.69 63.6798ZM613.832 63.4962C614.802 63.4365 615.782 63.3733 616.77 63.3063L616.567 60.3132C615.585 60.3797 614.612 60.4425 613.647 60.5019L613.832 63.4962ZM622.649 62.8689C624.586 62.7115 626.546 62.5387 628.522 62.3486L628.234 59.3624C626.275 59.5509 624.329 59.7225 622.406 59.8788L622.649 62.8689ZM634.388 61.736C636.336 61.5161 638.291 61.2781 640.247 61.0205L639.855 58.0462C637.919 58.3012 635.982 58.537 634.052 58.7549L634.388 61.736ZM646.094 60.1895C648.045 59.8908 649.991 59.5707 651.924 59.2276L651.4 56.2738C649.492 56.6125 647.57 56.9287 645.64 57.224L646.094 60.1895ZM657.734 58.116C659.684 57.7144 661.613 57.2866 663.514 56.8309L662.815 53.9135C660.947 54.3612 659.049 54.7821 657.129 55.1777L657.734 58.116ZM669.257 55.3414C670.216 55.0722 671.166 54.7948 672.105 54.5089L671.232 51.6389C670.315 51.9181 669.386 52.1894 668.446 52.4528L669.257 55.3414ZM672.105 54.5089C672.99 54.2396 673.879 53.968 674.77 53.6931L673.885 50.8265C673 51.0998 672.115 51.3702 671.232 51.6389L672.105 54.5089ZM680.099 52.0036C681.876 51.4207 683.649 50.8152 685.404 50.1783L684.381 47.3583C682.662 47.9822 680.918 48.5775 679.164 49.153L680.099 52.0036ZM690.655 48.1421C692.411 47.4108 694.135 46.6356 695.812 45.8063L694.482 43.1172C692.872 43.9138 691.207 44.6625 689.502 45.3726L690.655 48.1421ZM700.805 43.0725C702.455 42.0689 704.036 40.9917 705.53 39.8288L703.687 37.4615C702.294 38.5459 700.809 39.5586 699.246 40.5097L700.805 43.0725ZM709.828 35.969C711.167 34.5698 712.392 33.0652 713.479 31.442L710.987 29.7723C710.002 31.2418 708.888 32.6119 707.661 33.8943L709.828 35.969ZM716.26 26.3152C717.001 24.5788 717.602 22.7349 718.049 20.775L715.124 20.109C714.717 21.8964 714.171 23.5688 713.501 25.1377L716.26 26.3152ZM718.877 15.0403C718.941 14.1005 718.973 13.1383 718.973 12.153H715.973C715.973 13.0727 715.943 13.9673 715.884 14.8377L718.877 15.0403Z" fill="#9C56C7"/>
</svg>
