<svg width="40" height="42" viewBox="0 0 40 42" fill="none" xmlns="http://www.w3.org/2000/svg">
<g clip-path="url(#clip0_153_55)">
<path fill-rule="evenodd" clip-rule="evenodd" d="M39.5748 21.6953C39.5748 20.2347 39.4476 18.8303 39.2112 17.482H20.3748V25.4498H31.1384C30.6748 28.0247 29.2656 30.2063 27.1474 31.6669V36.8353H33.6112C37.393 33.2493 39.5748 27.9686 39.5748 21.6953Z" fill="white"/>
<path fill-rule="evenodd" clip-rule="evenodd" d="M20.374 41.8257C25.774 41.8257 30.3012 39.9811 33.6104 36.8351L27.1468 31.6667C25.3558 32.9026 23.065 33.633 20.374 33.633C15.1649 33.633 10.7558 30.0095 9.18306 25.1407H2.50122V30.4777C5.79214 37.2098 12.5558 41.8257 20.374 41.8257Z" fill="white"/>
<path fill-rule="evenodd" clip-rule="evenodd" d="M9.18386 25.1409C8.78386 23.9049 8.5566 22.5846 8.5566 21.227C8.5566 19.8694 8.78386 18.5492 9.18386 17.3133V11.9764H2.50204C1.14748 14.7572 0.374756 17.9032 0.374756 21.227C0.374756 24.5509 1.14748 27.6969 2.50204 30.4778L9.18386 25.1409Z" fill="white"/>
<path fill-rule="evenodd" clip-rule="evenodd" d="M20.374 8.82118C23.3104 8.82118 25.9468 9.86048 28.0194 11.9016L33.7558 5.99355C30.2922 2.66968 25.765 0.62854 20.374 0.62854C12.5558 0.62854 5.79214 5.2445 2.50122 11.9765L9.18306 17.3134C10.7558 12.4447 15.1649 8.82118 20.374 8.82118Z" fill="white"/>
</g>
<defs>
<clipPath id="clip0_153_55">
<rect width="40" height="41.1972" fill="white" transform="translate(0 0.62854)"/>
</clipPath>
</defs>
</svg>
