<svg width="40" height="42" viewBox="0 0 40 42" fill="none" xmlns="http://www.w3.org/2000/svg">
<path d="M20 4.32124C25.3012 4.32124 26.0242 4.32124 28.1928 4.32124C30.1204 4.32124 31.0844 4.81758 31.8072 5.06578C32.771 5.56212 33.494 5.81029 34.2168 6.55483C34.9398 7.29934 35.4216 8.04388 35.6626 9.03659C35.9036 9.7811 36.1446 10.7738 36.3856 12.7592C36.3856 14.9928 36.3856 15.4892 36.3856 21.1972C36.3856 26.9053 36.3856 27.4017 36.3856 29.6352C36.3856 31.6205 35.9036 32.6133 35.6626 33.3578C35.1808 34.3504 34.9398 35.0951 34.2168 35.8395C33.494 36.5841 32.771 37.0804 31.8072 37.3286C31.0844 37.5768 30.1204 37.825 28.1928 38.0732C26.0242 38.0732 25.5422 38.0732 20 38.0732C14.4578 38.0732 13.9759 38.0732 11.8072 38.0732C9.87952 38.0732 8.91566 37.5768 8.19278 37.3286C7.22892 36.8323 6.50602 36.5841 5.78314 35.8395C5.06024 35.0951 4.57832 34.3504 4.33736 33.3578C4.09638 32.6133 3.85542 31.6205 3.61446 29.6352C3.61446 27.4017 3.61446 26.9053 3.61446 21.1972C3.61446 15.4892 3.61446 14.9928 3.61446 12.7592C3.61446 10.7738 4.09638 9.7811 4.33736 9.03659C4.81928 8.04388 5.06024 7.29934 5.78314 6.55483C6.50602 5.81029 7.22892 5.31395 8.19278 5.06578C8.91566 4.81758 9.87952 4.56941 11.8072 4.32124C13.9759 4.32124 14.6988 4.32124 20 4.32124ZM20 0.598602C14.4578 0.598602 13.9759 0.598602 11.8072 0.598602C9.63856 0.598602 8.19278 1.09496 6.98796 1.59131C5.78314 2.08766 4.57832 2.83219 3.3735 4.07307C2.16868 5.31395 1.68675 6.30666 0.963856 7.79571C0.48193 9.03659 0.240964 10.5256 0 12.7592C0 14.9928 0 15.7373 0 21.1972C0 26.9053 0 27.4017 0 29.6352C0 31.8687 0.48193 33.3578 0.963856 34.5986C1.44578 35.8395 2.16868 37.0804 3.3735 38.3214C4.57832 39.5623 5.54218 40.0585 6.98796 40.8031C8.19278 41.2994 9.63856 41.5476 11.8072 41.7958C13.9759 41.7958 14.6988 41.7958 20 41.7958C25.3012 41.7958 26.0242 41.7958 28.1928 41.7958C30.3614 41.7958 31.8072 41.2994 33.012 40.8031C34.2168 40.3067 35.4216 39.5623 36.6266 38.3214C37.8314 37.0804 38.3132 36.0877 39.0362 34.5986C39.518 33.3578 39.759 31.8687 40 29.6352C40 27.4017 40 26.6571 40 21.1972C40 15.7373 40 14.9928 40 12.7592C40 10.5256 39.518 9.03659 39.0362 7.79571C38.5542 6.55483 37.8314 5.31395 36.6266 4.07307C35.4216 2.83219 34.4578 2.33583 33.012 1.59131C31.8072 1.09496 30.3614 0.846778 28.1928 0.598602C26.0242 0.598602 25.5422 0.598602 20 0.598602Z" fill="white"/>
<path d="M20 10.5256C14.2169 10.5256 9.63856 15.241 9.63856 21.1972C9.63856 27.1535 14.2169 31.8687 20 31.8687C25.7832 31.8687 30.3614 27.1535 30.3614 21.1972C30.3614 15.241 25.7832 10.5256 20 10.5256ZM20 28.1461C16.3855 28.1461 13.253 25.168 13.253 21.1972C13.253 17.4745 16.1446 14.2483 20 14.2483C23.6144 14.2483 26.747 17.2264 26.747 21.1972C26.747 24.9198 23.6144 28.1461 20 28.1461Z" fill="white"/>
<path d="M30.6024 12.7592C31.9332 12.7592 33.012 11.6481 33.012 10.2775C33.012 8.90682 31.9332 7.79572 30.6024 7.79572C29.2716 7.79572 28.1928 8.90682 28.1928 10.2775C28.1928 11.6481 29.2716 12.7592 30.6024 12.7592Z" fill="white"/>
</svg>
