<svg width="70" height="70" viewBox="0 0 70 70" fill="none" xmlns="http://www.w3.org/2000/svg">
<ellipse rx="5.7987" ry="8.83622" transform="matrix(-0.243285 -0.969955 0.975587 -0.219612 31.3302 50.0983)" fill="#FFA0B1"/>
<ellipse rx="5.7987" ry="8.83622" transform="matrix(-0.243285 -0.969955 0.975587 -0.219612 31.3302 50.0983)" fill="#FFA0B1"/>
<ellipse rx="5.73055" ry="8.9392" transform="matrix(0.339317 -0.940672 0.936889 0.349627 23.5635 24.3416)" fill="#FFA0B1"/>
<ellipse rx="5.73055" ry="8.9392" transform="matrix(0.339317 -0.940672 0.936889 0.349627 23.5635 24.3416)" fill="#FFA0B1"/>
<ellipse rx="5.77963" ry="8.86527" transform="matrix(-0.109796 -0.993954 0.996293 -0.0860289 22.6724 38.5792)" fill="#FFA0B1"/>
<ellipse rx="5.77963" ry="8.86527" transform="matrix(-0.109796 -0.993954 0.996293 -0.0860289 22.6724 38.5792)" fill="#FFA0B1"/>
<path d="M48.0552 20.0016L35.8767 26.7503C33.0358 28.3246 31.5607 31.5734 32.2452 34.7484C32.6157 36.4669 33.5884 37.9963 34.9876 39.0606L45.6154 47.1437C46.9045 48.1241 48.4492 48.7115 50.064 48.8354L50.5695 48.8741C53.2984 49.0834 55.9267 47.7992 57.4386 45.5178C58.3335 44.1675 58.7702 42.5651 58.6842 40.9474L58.3646 34.9365C58.2815 33.3721 58.4319 31.804 58.811 30.2839L59.7056 26.6967C60.0564 25.2901 59.8829 23.804 59.2175 22.5161C58.4303 20.9922 57.0252 19.881 55.3609 19.4663L54.2413 19.1872C52.1505 18.6662 49.9399 18.9572 48.0552 20.0016Z" fill="#FFA0B1"/>
<path d="M48.0552 20.0016L35.8767 26.7503C33.0358 28.3246 31.5607 31.5734 32.2452 34.7484C32.6157 36.4669 33.5884 37.9963 34.9876 39.0606L45.6154 47.1437C46.9045 48.1241 48.4492 48.7115 50.064 48.8354L50.5695 48.8741C53.2984 49.0834 55.9267 47.7992 57.4386 45.5178C58.3335 44.1675 58.7702 42.5651 58.6842 40.9474L58.3646 34.9365C58.2815 33.3721 58.4319 31.804 58.811 30.2839L59.7056 26.6967C60.0564 25.2901 59.8829 23.804 59.2175 22.5161C58.4303 20.9922 57.0252 19.881 55.3609 19.4663L54.2413 19.1872C52.1505 18.6662 49.9399 18.9572 48.0552 20.0016Z" fill="#FFA0B1"/>
<ellipse rx="5.72544" ry="8.94682" transform="matrix(0.433288 -0.901255 0.898441 0.439095 35.2413 14.9148)" fill="#FFA0B1"/>
<ellipse rx="5.72544" ry="8.94682" transform="matrix(0.433288 -0.901255 0.898441 0.439095 35.2413 14.9148)" fill="#FFA0B1"/>
</svg>
